<?xml version="1.0" encoding="UTF-8"?>
<svg id="_レイヤー_2" data-name="レイヤー 2" xmlns="http://www.w3.org/2000/svg" viewBox="0 0 163.95 163.95">
  <defs>
    <style>
      .cls-1 {
        fill: #ffd635;
      }

      .cls-1, .cls-2, .cls-3 {
        stroke-width: 0px;
      }

      .cls-2 {
        fill: #fff;
      }

      .cls-3 {
        fill: #7e5b2b;
      }
    </style>
  </defs>
  <g id="Laugh">
    <g>
      <path class="cls-1" d="M163.95,81.97C163.95,36.7,127.25,0,81.97,0S0,36.7,0,81.97s36.7,81.97,81.97,81.97,81.97-36.7,81.97-81.97Z"/>
      <g>
        <path class="cls-3" d="M67.01,55.39c0-11.72-4.58-21.26-10.21-21.26s-10.21,9.54-10.21,21.26,4.58,21.25,10.21,21.25,10.21-9.53,10.21-21.25Z"/>
        <path class="cls-3" d="M117.37,55.39c0-11.72-4.58-21.26-10.21-21.26s-10.21,9.54-10.21,21.26,4.58,21.25,10.21,21.25,10.21-9.53,10.21-21.25Z"/>
        <path class="cls-3" d="M119.57,126.86c3.61-3.22,6.82-6.89,9.54-10.93,2.18-3.25,4-6.63,5.41-10.06,1.12-2.66,2-5.31,2.7-8.11.39-1.55.69-3.07.91-4.5.25-1.68,0-3.11-.69-3.9-.48-.56-1.19-.84-2.11-.84-.82,0-1.8.22-2.92.65-3.56,1.38-7.07,2.5-10.7,3.42-5.49,1.39-11.97,2.54-18.75,3.34-7.36.85-14.52,1.3-20.69,1.3h-.59c-6.17,0-13.32-.45-20.68-1.3-6.78-.8-13.26-1.95-18.75-3.34-3.64-.92-7.14-2.04-10.7-3.42-1.12-.43-2.1-.65-2.92-.65-.92,0-1.63.28-2.11.84-.69.8-.94,2.22-.69,3.9.22,1.47.52,2.98.91,4.51.69,2.78,1.57,5.43,2.7,8.11,1.41,3.43,3.23,6.81,5.41,10.05,2.73,4.04,5.94,7.72,9.54,10.93,4.59,4.07,9.72,7.35,15.27,9.75,7.11,3.07,14.62,4.63,22.33,4.64,7.71,0,15.22-1.57,22.33-4.64,5.54-2.4,10.68-5.68,15.26-9.75Z"/>
        <path class="cls-2" d="M33.69,103.45l.07.17.16.09c14.68,8.06,31.33,12.32,48.15,12.32s33.57-4.29,48.29-12.4l.16-.09.07-.17c.86-2.19,1.51-4.2,2-6.16.12-.48.23-.96.33-1.44l.19-.88-.85.31c-3.05,1.1-6.06,2.03-9.19,2.82-5.69,1.44-12.39,2.63-19.39,3.45-7.56.88-14.92,1.34-21.28,1.34h-.56c-6.36,0-13.71-.46-21.26-1.34-7-.82-13.7-2.02-19.39-3.46-3.13-.79-6.14-1.72-9.2-2.82l-.85-.31.19.89c.1.47.21.95.33,1.42.5,2,1.16,4.05,2.03,6.26Z"/>
      </g>
    </g>
  </g>
</svg>