<?xml version="1.0" encoding="UTF-8"?>
<svg id="_レイヤー_2" data-name="レイヤー 2" xmlns="http://www.w3.org/2000/svg" viewBox="0 0 166.03 166.02">
  <defs>
    <style>
      .cls-1 {
        fill: #ffd635;
      }

      .cls-1, .cls-2, .cls-3, .cls-4 {
        stroke-width: 0px;
      }

      .cls-2 {
        fill: #fff;
      }

      .cls-3 {
        fill: #7e5b2b;
      }

      .cls-4 {
        fill: #534741;
      }
    </style>
  </defs>
  <g id="Look_Up" data-name="Look Up">
    <g>
      <path class="cls-1" d="M166.03,83.01C166.03,37.16,128.86,0,83.01,0S0,37.16,0,83.01s37.17,83.01,83.01,83.01,83.01-37.17,83.01-83.01Z"/>
      <g>
        <g>
          <path class="cls-3" d="M99.42,114.37c0-10.59-7.35-19.18-16.41-19.18s-16.41,8.58-16.41,19.18,7.35,19.18,16.41,19.18,16.41-8.59,16.41-19.18Z"/>
          <path class="cls-3" d="M99.42,114.37c0-10.59-7.35-19.18-16.41-19.18s-16.41,8.58-16.41,19.18,7.35,19.18,16.41,19.18,16.41-8.59,16.41-19.18Z"/>
        </g>
        <g>
          <path class="cls-2" d="M74.84,61.64c0-12.74-10.33-23.08-23.08-23.08s-23.08,10.33-23.08,23.08,10.33,23.07,23.08,23.07,23.08-10.33,23.08-23.07Z"/>
          <path class="cls-2" d="M137.34,61.64c0-12.74-10.33-23.08-23.08-23.08s-23.08,10.33-23.08,23.08,10.33,23.07,23.08,23.07,23.08-10.33,23.08-23.07Z"/>
          <path class="cls-4" d="M60.18,51.64c0-4.65-3.76-8.42-8.42-8.42s-8.41,3.77-8.41,8.42,3.76,8.41,8.41,8.41,8.42-3.77,8.42-8.41Z"/>
          <path class="cls-4" d="M122.68,51.64c0-4.65-3.76-8.42-8.42-8.42s-8.41,3.77-8.41,8.42,3.76,8.41,8.41,8.41,8.42-3.77,8.42-8.41Z"/>
        </g>
      </g>
    </g>
  </g>
</svg>