<?xml version="1.0" encoding="UTF-8"?>
<svg id="_レイヤー_2" data-name="レイヤー 2" xmlns="http://www.w3.org/2000/svg" viewBox="0 0 166.71 166.71">
  <defs>
    <style>
      .cls-1 {
        fill: #ffd635;
      }

      .cls-1, .cls-2, .cls-3, .cls-4 {
        stroke-width: 0px;
      }

      .cls-2 {
        fill: #fff;
      }

      .cls-3 {
        fill: #5fa5e1;
      }

      .cls-4 {
        fill: #7e5b2b;
      }
    </style>
  </defs>
  <g id="Crying">
    <g>
      <path class="cls-1" d="M166.71,83.35C166.71,37.32,129.39,0,83.36,0S0,37.32,0,83.35s37.32,83.36,83.36,83.36,83.36-37.32,83.36-83.36Z"/>
      <g>
        <path class="cls-3" d="M25.85,81.33v62.25c8.12,7.77,17.79,13.92,28.5,17.92v-88.65l-28.5,8.49Z"/>
        <path class="cls-3" d="M112.36,72.84v88.65c10.72-4,20.39-10.15,28.5-17.92v-62.24l-28.5-8.49Z"/>
      </g>
      <path class="cls-4" d="M129.93,60.97c5.41,2.4,9.98,4.24,13.27,5.37,3.28,1.13,5.34,1.44,5.59.96.25-.48-1.15-2-3.94-4.08-2.78-2.08-6.88-4.83-11.91-7.95-5.04-3.09-9.34-5.46-12.66-6.52-3.31-1.09-5.69-.77-6.2.19-.51.96.57,3.11,3.33,5.23,2.75,2.15,7.12,4.38,12.51,6.8Z"/>
      <path class="cls-4" d="M23.51,66.34c3.29-1.13,7.86-2.97,13.27-5.37,5.39-2.42,9.77-4.65,12.51-6.8,2.76-2.12,3.84-4.27,3.33-5.23-.51-.96-2.89-1.28-6.2-.19-3.32,1.06-7.62,3.42-12.66,6.52-5.03,3.12-9.12,5.87-11.91,7.95-2.78,2.08-4.19,3.6-3.94,4.08.25.48,2.31.17,5.59-.96Z"/>
      <path class="cls-4" d="M101.94,122.5c0-12.58-8.33-22.79-18.58-22.79s-18.58,10.21-18.58,22.79,8.32,12.84,18.58,12.84,18.58-.25,18.58-12.84Z"/>
      <path class="cls-4" d="M101.94,122.5c0-12.58-8.33-22.79-18.58-22.79s-18.58,10.21-18.58,22.79,8.32,12.84,18.58,12.84,18.58-.25,18.58-12.84Z"/>
      <path class="cls-4" d="M78.66,148.18c1.56-.17,3.62-.43,5.97-.44,2.34,0,4.4.27,5.96.44,1.56.17,2.58.24,2.8-.06.22-.3-.26-1.34-1.67-2.5-.71-.57-1.65-1.16-2.84-1.63-1.19-.46-2.64-.79-4.26-.8-1.62,0-3.07.33-4.26.8-1.19.47-2.13,1.06-2.84,1.63-1.41,1.15-1.89,2.19-1.67,2.49.22.31,1.25.24,2.81.06Z"/>
      <path class="cls-4" d="M32.67,81.17c1.66-.74,3.7-1.62,6.27-2.37,2.57-.75,5.69-1.37,9.43-1.38,3.74,0,6.86.63,9.43,1.38,2.57.75,4.61,1.64,6.27,2.37,3.28,1.5,5.19,2.35,6.22,1.6.49-.36.73-1.1.52-2.28-.22-1.16-.9-2.78-2.37-4.62-1.47-1.83-3.76-3.9-7.1-5.61-3.32-1.7-7.74-3-12.97-3.01-5.23,0-9.65,1.32-12.97,3.01-3.34,1.71-5.63,3.78-7.1,5.61-1.47,1.85-2.15,3.46-2.37,4.62-.21,1.18.03,1.92.52,2.28,1.03.75,2.94-.09,6.22-1.6Z"/>
      <path class="cls-4" d="M102.64,81.17c1.66-.74,3.7-1.62,6.27-2.37,2.58-.75,5.7-1.37,9.43-1.38,3.73,0,6.85.63,9.43,1.38,2.57.75,4.61,1.64,6.27,2.37,3.28,1.5,5.19,2.35,6.22,1.6.49-.36.73-1.1.52-2.28-.22-1.16-.9-2.78-2.37-4.62-1.47-1.83-3.76-3.9-7.1-5.61-3.32-1.7-7.74-3-12.97-3.01-5.24,0-9.65,1.32-12.98,3.01-3.34,1.71-5.63,3.78-7.1,5.61-1.47,1.85-2.15,3.46-2.37,4.62-.21,1.18.03,1.92.52,2.28,1.03.75,2.94-.09,6.22-1.6Z"/>
      <path class="cls-2" d="M83.36,102.87c-4.03,0-7.87,2-10.75,5.49,3.06.73,6.66,1.1,10.75,1.1s7.69-.37,10.75-1.1c-2.88-3.49-6.72-5.49-10.75-5.49Z"/>
    </g>
  </g>
</svg>