<?xml version="1.0" encoding="UTF-8"?>
<svg id="_レイヤー_2" data-name="レイヤー 2" xmlns="http://www.w3.org/2000/svg" viewBox="0 0 166.49 166.49">
  <defs>
    <style>
      .cls-1 {
        fill: #ffd635;
      }

      .cls-1, .cls-2, .cls-3 {
        stroke-width: 0px;
      }

      .cls-2 {
        fill: #7e5b2b;
      }

      .cls-3 {
        fill: #f74f5c;
      }
    </style>
  </defs>
  <g id="Love_Eyes" data-name="Love Eyes">
    <g>
      <path class="cls-1" d="M166.49,83.24C166.49,37.27,129.22,0,83.25,0S0,37.27,0,83.24s37.27,83.25,83.25,83.25,83.25-37.27,83.25-83.25Z"/>
      <g>
        <path class="cls-2" d="M58.78,134.22c6.47,3.7,14.88,6.47,24.46,6.49,9.58-.02,17.99-2.79,24.46-6.49,6.51-3.72,11.18-8.3,14.35-12.45,3.17-4.17,4.88-7.9,5.73-10.55.83-2.67.84-4.28.25-4.74-.61-.48-2.12-.02-4.5.88-2.38.89-5.66,2.19-9.69,3.38-4.03,1.19-8.78,2.29-13.96,3.07-5.19.78-10.77,1.26-16.64,1.27-5.86-.02-11.45-.49-16.64-1.27-5.18-.78-9.93-1.87-13.96-3.07-4.03-1.19-7.31-2.49-9.69-3.38-2.38-.9-3.89-1.36-4.5-.88-.59.46-.59,2.07.25,4.74.85,2.65,2.56,6.38,5.73,10.55,3.17,4.15,7.84,8.73,14.34,12.45Z"/>
        <path class="cls-3" d="M140.7,52.5c-3.58-6.36-13.29-7.81-20.52-2.61-4.16-7.88-13.5-10.91-19.54-6.81-16.25,11.04,6.62,37.46,11.16,42.43,6.3-2.43,38.53-15.88,28.9-33.02Z"/>
        <path class="cls-3" d="M65.86,43.08c-6.04-4.11-15.39-1.07-19.54,6.81-7.23-5.2-16.95-3.75-20.52,2.61-9.63,17.14,22.61,30.59,28.9,33.02,4.55-4.98,27.41-31.39,11.16-42.43Z"/>
      </g>
    </g>
  </g>
</svg>