<?xml version="1.0" encoding="UTF-8"?>
<svg id="_レイヤー_2" data-name="レイヤー 2" xmlns="http://www.w3.org/2000/svg" viewBox="0 0 166.03 166.02">
  <defs>
    <style>
      .cls-1 {
        fill: #ffd635;
      }

      .cls-1, .cls-2 {
        stroke-width: 0px;
      }

      .cls-2 {
        fill: #7e5b2b;
      }
    </style>
  </defs>
  <g id="Crying_Loud" data-name="Crying Loud">
    <g>
      <path class="cls-1" d="M166.03,83.01C166.03,37.16,128.86,0,83.01,0S0,37.16,0,83.01s37.17,83.01,83.01,83.01,83.01-37.17,83.01-83.01Z"/>
      <g>
        <path class="cls-2" d="M130.94,134.1c.04-.7.12-1.38.12-2.09-2.67-25.47-23.74-43.9-48.06-43.9s-45.39,18.43-48.06,43.9c0,.7.08,1.39.12,2.09,13.17-9.51,29.82-15.2,47.94-15.2s34.77,5.69,47.94,15.2Z"/>
        <g>
          <path class="cls-2" d="M68.16,67.96h0c.62-.34,1.15-.87,1.5-1.54.95-1.82.24-4.07-1.59-5.02l-34.09-17.72,23.81,21.12-23.81,22.13,34.17-18.97Z"/>
          <path class="cls-2" d="M97.08,60.12c-.99.46-1.83,1.25-2.36,2.3-1.26,2.5-.26,5.54,2.24,6.8h.01s35.05,17.72,35.05,17.72l-25.77-22.15,25.77-21.1-34.93,16.44Z"/>
        </g>
        <g>
          <path class="cls-2" d="M36.29,37.1c.26.13.64.35,1.13.52.49.21,1.09.41,1.79.59.7.17,1.5.37,2.38.46.44.04.9.08,1.38.12.48.02.97,0,1.48,0,1.02,0,2.08-.18,3.19-.35,1.09-.24,2.22-.52,3.33-.95,1.1-.44,2.23-.9,3.26-1.56l1.56-.96c.47-.39.95-.77,1.42-1.15.95-.74,1.75-1.64,2.48-2.52.78-.83,1.32-1.83,1.85-2.72.25-.46.53-.87.71-1.33.17-.46.35-.9.49-1.33.29-.86.54-1.63.65-2.35.13-.72.16-1.37.2-1.88.05-.51.02-.94.03-1.21,0-.28-.02-.43-.02-.43v-.09c-.02-.11-.07-.22-.16-.3-.19-.16-.46-.13-.62.05,0,0-.09.1-.25.3-.16.2-.41.47-.69.84-.28.37-.64.8-1,1.31-.36.51-.91.99-1.39,1.57-.25.28-.51.58-.78.88-.28.29-.6.57-.9.87-.62.59-1.24,1.23-1.98,1.78-.71.59-1.43,1.19-2.26,1.7-.39.28-.79.55-1.18.83l-1.28.71c-.83.52-1.72.93-2.59,1.36-.42.24-.9.36-1.32.58-.44.19-.86.4-1.3.56-.89.29-1.72.66-2.55.92-.82.28-1.61.52-2.35.75-.37.12-.72.21-1.06.3-.34.1-.66.19-.97.28-.62.16-1.15.3-1.6.41-.45.11-.8.2-1.04.27-.24.06-.38.09-.38.09-.1.02-.19.07-.26.15-.14.18-.11.44.07.58l.15.12s.12.09.38.23Z"/>
          <path class="cls-2" d="M102.76,21.52c.13.47.28,1.05.49,1.69.2.65.56,1.33.93,2.09.19.38.39.78.59,1.19.21.41.52.77.79,1.18.58.78,1.12,1.69,1.91,2.42.75.77,1.5,1.6,2.42,2.27.45.34.9.69,1.36,1.04l1.46.9c.96.64,2.04,1.04,3.05,1.51,1.03.45,2.09.74,3.11,1.04,1.03.25,2.02.49,2.99.58.48.06.94.13,1.39.17.45.02.89.03,1.31.05.83.04,1.6-.02,2.28-.06.68-.06,1.26-.13,1.75-.22.48-.07.86-.18,1.12-.24.26-.06.38-.1.38-.1.1-.03.19-.1.24-.2.11-.21.04-.48-.17-.59l-.1-.06s-.13-.07-.38-.21c-.24-.12-.58-.34-1.03-.55-.44-.21-.96-.53-1.55-.78-.29-.15-.6-.32-.93-.49-.32-.16-.66-.31-1.01-.5-.7-.34-1.44-.69-2.19-1.08-.77-.34-1.54-.78-2.35-1.15-.78-.4-1.59-.81-2.4-1.23-.78-.47-1.63-.81-2.38-1.31l-1.18-.66c-.38-.24-.75-.48-1.12-.72-.36-.26-.8-.41-1.13-.7-.34-.26-.71-.5-1.07-.74-.75-.45-1.37-1-2.05-1.48-.33-.24-.67-.47-.99-.71-.3-.25-.58-.51-.88-.74-.56-.49-1.21-.88-1.67-1.31-.45-.44-.92-.8-1.29-1.12-.36-.32-.71-.55-.92-.72-.23-.17-.35-.25-.35-.25l-.14-.1c-.09-.07-.21-.09-.33-.07-.22.05-.36.27-.31.5,0,0,.03.13.09.38.06.25.13.63.27,1.09Z"/>
        </g>
      </g>
    </g>
  </g>
</svg>