<?xml version="1.0" encoding="UTF-8"?>
<svg id="_レイヤー_2" data-name="レイヤー 2" xmlns="http://www.w3.org/2000/svg" viewBox="0 0 166.03 166.02">
  <defs>
    <style>
      .cls-1 {
        fill: #443731;
      }

      .cls-1, .cls-2 {
        stroke-width: 0px;
      }

      .cls-2 {
        fill: #f4602c;
      }
    </style>
  </defs>
  <g id="Angry">
    <g>
      <path class="cls-2" d="M166.03,83.01C166.03,37.16,128.86,0,83.01,0S0,37.16,0,83.01s37.17,83.01,83.01,83.01,83.01-37.17,83.01-83.01Z"/>
      <g>
        <path class="cls-1" d="M65.54,136.14c2.4-.55,5.17-1.03,8.13-1.35,2.97-.32,6.1-.5,9.34-.51,3.25.01,6.38.19,9.34.51,2.96.32,5.74.8,8.13,1.35,4.82,1.08,7.92,2.56,8.78,1.88.43-.33.52-1.35.12-3.02-.41-1.66-1.33-3.97-3.16-6.57-1.82-2.58-4.57-5.43-8.46-7.75-3.87-2.3-8.94-4.03-14.75-4.04-5.8.01-10.88,1.74-14.74,4.04-3.89,2.31-6.64,5.16-8.46,7.74-1.83,2.59-2.75,4.91-3.16,6.57-.4,1.67-.31,2.68.11,3.02.86.69,3.96-.79,8.78-1.88Z"/>
        <path class="cls-1" d="M51.48,101.6c7.25.93,14.53-9.1,16.23-22.4.18-1.4.27-2.77.32-4.12l-8.97-6.16-12.36-8.49-5.92-4.06c-1.03-.71-2.45-.45-3.16.59-.71,1.03-.45,2.45.59,3.16l6.34,4.35c-1.48,3.3-2.59,7.16-3.13,11.37-1.7,13.29,2.79,24.83,10.05,25.77Z"/>
        <path class="cls-1" d="M128.4,56.96c-.71-1.03-2.12-1.3-3.16-.59l-5.92,4.06-12.36,8.49-8.97,6.16c.04,1.35.14,2.72.32,4.12,1.7,13.3,8.98,23.33,16.23,22.4,7.26-.93,11.76-12.47,10.05-25.77-.54-4.21-1.65-8.06-3.13-11.37l6.34-4.35c1.03-.71,1.3-2.12.59-3.16Z"/>
      </g>
    </g>
  </g>
</svg>